<svg width="20" height="20" viewBox="0 0 20 20" fill="none" xmlns="http://www.w3.org/2000/svg">
<rect x="0.75" y="0.75" width="18.5" height="18.5" rx="1.25" stroke="#303030" stroke-width="1.5"/>
<mask id="path-2-inside-1_305_14" fill="white">
<path d="M10 18C10 19.1046 9.09582 20.0201 8.01327 19.8007C6.74446 19.5434 5.53127 19.041 4.4443 18.3147C2.79981 17.2159 1.51808 15.6541 0.761204 13.8268C0.00432817 11.9996 -0.193705 9.98891 0.192147 8.0491C0.578 6.10929 1.53041 4.32746 2.92893 2.92893C4.32746 1.53041 6.10929 0.577999 8.0491 0.192147C9.98891 -0.193705 11.9996 0.00432861 13.8268 0.761205C15.6541 1.51808 17.2159 2.79981 18.3147 4.4443C19.041 5.53127 19.5434 6.74446 19.8007 8.01328C20.0201 9.09582 19.1046 10 18 10L12 10C10.8954 10 10 10.8954 10 12L10 18Z"/>
</mask>
<path d="M10 18C10 19.1046 9.09582 20.0201 8.01327 19.8007C6.74446 19.5434 5.53127 19.041 4.4443 18.3147C2.79981 17.2159 1.51808 15.6541 0.761204 13.8268C0.00432817 11.9996 -0.193705 9.98891 0.192147 8.0491C0.578 6.10929 1.53041 4.32746 2.92893 2.92893C4.32746 1.53041 6.10929 0.577999 8.0491 0.192147C9.98891 -0.193705 11.9996 0.00432861 13.8268 0.761205C15.6541 1.51808 17.2159 2.79981 18.3147 4.4443C19.041 5.53127 19.5434 6.74446 19.8007 8.01328C20.0201 9.09582 19.1046 10 18 10L12 10C10.8954 10 10 10.8954 10 12L10 18Z" stroke="#303030" stroke-width="3" mask="url(#path-2-inside-1_305_14)"/>
<rect x="0.75" y="0.75" width="18.5" height="18.5" rx="1.25" stroke="#303030" stroke-width="1.5"/>
<mask id="path-4-inside-2_305_14" fill="white">
<path d="M10 18C10 19.1046 9.09582 20.0201 8.01327 19.8007C6.74446 19.5434 5.53127 19.041 4.4443 18.3147C2.79981 17.2159 1.51808 15.6541 0.761204 13.8268C0.00432817 11.9996 -0.193705 9.98891 0.192147 8.0491C0.578 6.10929 1.53041 4.32746 2.92893 2.92893C4.32746 1.53041 6.10929 0.577999 8.0491 0.192147C9.98891 -0.193705 11.9996 0.00432861 13.8268 0.761205C15.6541 1.51808 17.2159 2.79981 18.3147 4.4443C19.041 5.53127 19.5434 6.74446 19.8007 8.01328C20.0201 9.09582 19.1046 10 18 10L12 10C10.8954 10 10 10.8954 10 12L10 18Z"/>
</mask>
<path d="M10 18C10 19.1046 9.09582 20.0201 8.01327 19.8007C6.74446 19.5434 5.53127 19.041 4.4443 18.3147C2.79981 17.2159 1.51808 15.6541 0.761204 13.8268C0.00432817 11.9996 -0.193705 9.98891 0.192147 8.0491C0.578 6.10929 1.53041 4.32746 2.92893 2.92893C4.32746 1.53041 6.10929 0.577999 8.0491 0.192147C9.98891 -0.193705 11.9996 0.00432861 13.8268 0.761205C15.6541 1.51808 17.2159 2.79981 18.3147 4.4443C19.041 5.53127 19.5434 6.74446 19.8007 8.01328C20.0201 9.09582 19.1046 10 18 10L12 10C10.8954 10 10 10.8954 10 12L10 18Z" stroke="#303030" stroke-width="3" mask="url(#path-4-inside-2_305_14)"/>
</svg>
